<?xml version="1.0" encoding="utf-8"?>
<!-- Generator: Adobe Illustrator 16.0.4, SVG Export Plug-In . SVG Version: 6.00 Build 0)  -->
<!DOCTYPE svg PUBLIC "-//W3C//DTD SVG 1.1//EN" "http://www.w3.org/Graphics/SVG/1.1/DTD/svg11.dtd">
<svg version="1.1" id="Layer_1" xmlns="http://www.w3.org/2000/svg" xmlns:xlink="http://www.w3.org/1999/xlink" x="0px" y="0px"
	 width="500px" height="500px" viewBox="0 0 500 500" style="enable-background:new 0 0 500 500;" xml:space="preserve">
<style type="text/css">
<![CDATA[
	.st0{fill:#718455;}
]]>
</style>
<g>
	<path class="st0" d="M304.7,5.1C294,2.7,283,1,271.8,0c-17.8,24.8-39,58.9-52.2,83.4l-19.4,32.3C249.4,96.2,293,52.6,304.7,5.1z"/>
	<path class="st0" d="M32.5,307.6c9.7-16.2,37.6-65.7,86-146.6c-21.5-3.2-34.4-11.9-37.6-23.7c5.4,1.1,10.8,2.2,17.2,2.2
		c9.7,0,21.5-1.1,35.5-4.3l16.1-26.9l39.8-66.8l16.1-25.9l8.3-13.9C93,19.2,0,123.5,0,249.6c0,30.8,5.6,60.3,15.7,87.6
		C21.3,327.7,26.9,317.7,32.5,307.6z"/>
	<path class="st0" d="M442,321.3c-16.1,14-32.3,23.7-46.2,29.1c9.7,3.2,16.1,9.7,17.2,17.2c5.3-2.1,30.7-14.9,74.1-38.2
		c7.9-23.6,12.4-48.7,12.9-74.9C485.9,279.1,466.6,301.4,442,321.3z"/>
	<path class="st0" d="M311,39.2c-23.7,46.3-54.8,79.7-93.5,98.1c-9.7,5.4-23.7,10.8-39.8,17.2l-20.4,33.4
		c29-22.6,54.8-33.4,77.4-32.3c23.7,2.2,34.4,19.4,33.3,51.7c-1.1,23.7-11.8,50.7-31.2,81.9l-36.6,52.8
		c-7.5,9.7-10.8,17.2-10.8,20.5c0,2.2,1.1,3.2,3.2,3.2c0.2,0,0.4,0,0.7,0c16.2-7.8,32.3-16.4,47.6-25c16.1-10.8,41.9-34.5,75.3-70
		c37.6-39.9,64.5-65.7,81.7-79.7c32.1-24.7,60-36.5,84.7-33.4C454.7,86.9,395.8,32,322.7,9.8C320,19.1,316.1,28.9,311,39.2z"/>
	<path class="st0" d="M272.1,453.8c28-26.9,55.9-48.5,83.9-63.6l6.4-10.8c2.2-7.5-4.3-12.9-20.4-18.3c-10.8-1.1-16.1-5.4-15.1-14
		c12.9,4.3,30.1-1.1,52.7-16.2c29-19.4,52.7-45.3,71-77.6c5.4-8.6,7.5-16.2,7.5-22.6c0-14-8.6-19.4-24.7-18.3
		c-14,1.1-33.3,14-55.9,38.8l-72,77.6c-10.9,10.5-22.5,20-34.7,28.6c-15.3,13.6-47.7,29.9-96.3,48.2c-36.6,8.6-55.9,6.5-59.1-7.5
		c-2.1-9.7,10.8-34.5,39.8-74.4c31.2-43.1,47.3-71.1,50.5-84.1c5.4-24.8-2.2-36.6-20.4-36.6c-16.1,0-36.6,14-62.4,41L44.4,376.5
		c-1.7,3-3.3,5.8-4.9,8.3c41.1,64.2,110.7,108.4,190.9,114.6C242.4,484.3,256.3,469.1,272.1,453.8z"/>
	<path class="st0" d="M462.4,380.5c-9.7,5.4-29,12.9-60.2,24.8l-7.5,14c-8.7,18-17.9,35.3-27.7,51.8c39.8-21.2,73.3-52.9,96.7-91.3
		C463.3,380,462.9,380.3,462.4,380.5z"/>
	<path class="st0" d="M337.7,433.4c-26.6,16.1-53.7,39.8-76.9,66.6c13.2-0.6,26.2-2.1,38.8-4.7c5.3-8.1,10.9-16.5,16.6-25.3
		C328,451.7,335.6,438.7,337.7,433.4z"/>
</g>
</svg>
